<svg xmlns="http://www.w3.org/2000/svg" width="1626" height="1328" viewBox="0 0 1626 1328" version="1.1">
	<path d="M 954.755 273.750 L 954.500 380.500 566.049 380.751 C 352.401 380.889, 177.223 381.377, 176.766 381.834 C 176.309 382.291, 175.895 423.742, 175.845 473.948 C 175.769 550.309, 175.979 565.372, 177.127 566.100 C 179.052 567.319, 1441.072 567.240, 1443 566.021 C 1444.841 564.856, 1445.125 565.151, 1431.500 554.073 C 1426 549.601, 1420.600 545.137, 1419.500 544.154 C 1418.400 543.170, 1410.892 537.158, 1402.815 530.794 C 1394.738 524.430, 1385.963 517.404, 1383.315 515.181 C 1379.043 511.595, 1353.926 490.732, 1341.947 480.820 C 1339.501 478.796, 1335.605 475.646, 1333.290 473.820 C 1329.112 470.526, 1320.088 463.153, 1308.438 453.515 C 1305.103 450.757, 1300.861 447.375, 1299.009 446 C 1297.158 444.625, 1294.267 442.375, 1292.585 441 C 1290.903 439.625, 1288.678 437.825, 1287.641 437 C 1286.603 436.175, 1285.022 434.790, 1284.127 433.923 C 1283.232 433.056, 1280.700 431.033, 1278.500 429.429 C 1276.300 427.824, 1274.275 426.277, 1274 425.990 C 1272.658 424.592, 1236.816 394.925, 1225.500 385.846 C 1222.750 383.640, 1218.475 380.125, 1216 378.036 C 1203.841 367.772, 1197.588 362.644, 1190.735 357.318 C 1179.345 348.465, 1160.839 333.355, 1137.500 313.849 C 1130.987 308.406, 1114.674 295.048, 1111.428 292.500 C 1109.326 290.850, 1103.261 285.900, 1097.949 281.500 C 1092.638 277.100, 1086.794 272.375, 1084.963 271 C 1083.132 269.625, 1079.742 266.925, 1077.430 265 C 1075.117 263.075, 1067.690 257, 1060.925 251.500 C 1054.160 246, 1040.497 234.749, 1030.563 226.499 C 1007.244 207.132, 1006.168 206.248, 976.500 182.129 C 972.100 178.551, 966.201 173.684, 963.392 171.312 C 954.159 163.517, 955.042 153.041, 954.755 273.750 M 180.185 695.722 C 180.367 696.668, 185.033 700.842, 190.554 704.996 C 198.818 711.215, 222.554 730.396, 233 739.298 C 234.375 740.469, 238.875 744.148, 243 747.472 C 247.125 750.796, 258.642 760.262, 268.594 768.508 C 278.545 776.754, 290.635 786.650, 295.460 790.500 C 313.561 804.942, 352.942 837.053, 371.388 852.411 C 390.765 868.543, 412.042 885.882, 416.858 889.465 C 418.311 890.546, 424.675 895.737, 431 901 C 437.325 906.263, 443.897 911.679, 445.603 913.035 C 457.766 922.695, 485.118 945.245, 505.423 962.353 C 508.130 964.634, 512.425 968.075, 514.967 970 C 517.509 971.925, 526.994 979.548, 536.045 986.940 C 552.003 999.974, 559.385 1006.055, 590.067 1031.445 C 598.080 1038.075, 608.430 1046.539, 613.067 1050.253 C 643.776 1074.843, 654.957 1083.981, 660.658 1089.143 C 663.679 1091.879, 666.679 1093.940, 667.325 1093.724 C 668.215 1093.426, 668.507 1067.576, 668.530 987.185 C 668.550 916.512, 668.901 880.699, 669.579 880.021 C 670.266 879.334, 797.051 878.921, 1059.049 878.751 L 1447.500 878.500 1447.755 787.609 C 1447.942 721.284, 1447.706 696.350, 1446.883 695.359 C 1445.935 694.216, 1344.990 694, 812.804 694 C 214.518 694, 179.872 694.094, 180.185 695.722" stroke="none" fill="#ffffff" fill-rule="evenodd"/>
</svg>