<svg xmlns="http://www.w3.org/2000/svg" width="762" height="670" viewBox="0 0 762 670" version="1.1">
	<path d="M 456.759 183.135 L 456.500 236.500 265 236.741 C 159.675 236.874, 72.933 236.986, 72.240 236.991 C 71.241 236.998, 71.034 246.453, 71.240 282.575 L 71.500 328.149 384.940 328.051 C 557.333 327.997, 698.515 327.818, 698.679 327.654 C 698.843 327.490, 695.045 324.160, 690.239 320.253 C 678.794 310.951, 663.248 298.261, 643.500 282.102 C 634.700 274.901, 623.450 265.720, 618.500 261.700 C 613.550 257.680, 596.900 244.050, 581.500 231.411 C 553.183 208.171, 520.559 181.473, 509.428 172.432 C 506.089 169.719, 497.089 162.350, 489.428 156.055 C 476.199 145.183, 460.950 132.791, 458.259 130.723 C 457.275 129.967, 456.964 140.831, 456.759 183.135 M 75.635 394.779 C 77.359 396.276, 85.193 402.675, 93.044 409 C 100.895 415.325, 110.284 423.005, 113.909 426.068 C 117.534 429.130, 127.700 437.427, 136.500 444.506 C 145.300 451.585, 159.925 463.499, 169 470.980 C 178.075 478.461, 190.900 488.976, 197.500 494.347 C 204.100 499.717, 216.025 509.464, 224 516.006 C 231.975 522.548, 244.350 532.681, 251.500 538.524 C 272.773 555.906, 293.584 572.957, 304.372 581.841 L 314.500 590.182 315 536.841 L 315.500 483.500 508.250 483.247 L 701 482.995 701 437.497 L 701 392 386.750 392.029 L 72.500 392.059 75.635 394.779" stroke="none" fill="#000000" fill-rule="evenodd"/>
</svg>